<svg version="1.1" id="Layer_1" xmlns="http://www.w3.org/2000/svg" x="0" y="0" viewBox="0 0 128 128" style="enable-background:new 0 0 128 128" xml:space="preserve"><style>.st6{fill:#746887}.st7{fill:#f98770}.st8{fill:#9b9b9b}.st9{fill:#ffddcf}</style><ellipse class="st9" cx="22.5" cy="88.623" rx="10" ry="10.014"/><path class="st8" d="M43.5 118.665s-6 8.011-21 8.011-21-8.011-21-8.011 4.93-20.028 21-20.028 21 20.028 21 20.028z"/><path class="st9" d="m31.84 101.301-4.3 4.306a6.974 6.974 0 0 1-10.12-.27l-3.85-4.286c.55-.32 1.12-.621 1.72-.891 2.1-.951 4.5-1.522 7.21-1.522s5.11.571 7.21 1.522c.75.33 1.46.72 2.13 1.141z"/><ellipse cx="64" cy="64.089" rx="23.5" ry="23.533" style="fill:#ffa77b"/><g><ellipse class="st9" cx="105.5" cy="88.623" rx="10" ry="10.014"/><path class="st8" d="M126.5 118.665s-6 8.011-21 8.011-21-8.011-21-8.011 4.93-20.028 21-20.028 21 20.028 21 20.028z"/><path class="st9" d="m114.84 101.301-4.3 4.306a6.974 6.974 0 0 1-10.12-.27l-3.85-4.286c.55-.32 1.12-.621 1.72-.891 2.1-.951 4.5-1.522 7.21-1.522s5.11.571 7.21 1.522c.75.33 1.46.72 2.13 1.141z"/></g><g><ellipse class="st9" cx="22.5" cy="11.516" rx="10" ry="10.014"/><path class="st8" d="M43.5 41.558s-6 8.011-21 8.011-21-8.011-21-8.011 4.93-20.028 21-20.028 21 20.028 21 20.028z"/><path class="st9" d="m31.84 24.194-4.3 4.306a6.974 6.974 0 0 1-10.12-.27l-3.85-4.286c.55-.32 1.12-.621 1.72-.891 2.1-.951 4.5-1.522 7.21-1.522s5.11.571 7.21 1.522c.75.33 1.46.72 2.13 1.141z"/><g><ellipse class="st9" cx="105.5" cy="11.516" rx="10" ry="10.014"/><path class="st8" d="M126.5 41.558s-6 8.011-21 8.011-21-8.011-21-8.011 4.93-20.028 21-20.028 21 20.028 21 20.028z"/><path class="st9" d="m114.84 24.194-4.3 4.306a6.974 6.974 0 0 1-10.12-.27l-3.85-4.286c.55-.32 1.12-.621 1.72-.891 2.1-.951 4.5-1.522 7.21-1.522s5.11.571 7.21 1.522c.75.33 1.46.72 2.13 1.141z"/></g></g><g><path class="st7" d="M22.5 74.604a1.5 1.5 0 0 1-1.5-1.502V55.076a1.5 1.5 0 1 1 3 0v18.025c0 .83-.671 1.503-1.5 1.503zM105.5 74.604a1.5 1.5 0 0 1-1.5-1.502V55.076a1.5 1.5 0 1 1 3 0v18.025c0 .83-.671 1.503-1.5 1.503z"/><path class="st7" d="M40.5 65.591h-18c-.829 0-1.5-.672-1.5-1.502s.671-1.502 1.5-1.502h18c.829 0 1.5.672 1.5 1.502s-.671 1.502-1.5 1.502zM105.5 65.591h-18c-.829 0-1.5-.672-1.5-1.502s.671-1.502 1.5-1.502h18c.829 0 1.5.672 1.5 1.502s-.671 1.502-1.5 1.502z"/><path class="st6" d="M22.5 100.139c-6.341 0-11.5-5.166-11.5-11.516s5.159-11.516 11.5-11.516S34 82.273 34 88.623s-5.159 11.516-11.5 11.516zm0-20.028c-4.687 0-8.5 3.818-8.5 8.512 0 4.694 3.813 8.512 8.5 8.512s8.5-3.818 8.5-8.512c0-4.693-3.813-8.512-8.5-8.512z"/><path class="st6" d="M22.61 109.152a8.479 8.479 0 0 1-6.306-2.812l-3.849-4.285a1.504 1.504 0 0 1 .361-2.303 20.05 20.05 0 0 1 1.859-.963c2.423-1.098 5.057-1.655 7.826-1.655s5.402.557 7.828 1.656c.756.333 1.516.74 2.309 1.238a1.5 1.5 0 0 1 .693 1.104c.052.455-.106.908-.43 1.231l-4.3 4.306a8.526 8.526 0 0 1-5.991 2.483zm-6.625-7.659 2.55 2.838a5.479 5.479 0 0 0 4.075 1.816 5.5 5.5 0 0 0 3.869-1.603l2.888-2.892c-.087-.041-.174-.08-.261-.118-2.049-.928-4.267-1.395-6.606-1.395-2.31 0-4.501.456-6.515 1.354zM105.5 100.139c-6.341 0-11.5-5.166-11.5-11.516s5.159-11.516 11.5-11.516S117 82.273 117 88.623s-5.159 11.516-11.5 11.516zm0-20.028c-4.687 0-8.5 3.818-8.5 8.512 0 4.694 3.813 8.512 8.5 8.512s8.5-3.818 8.5-8.512c0-4.693-3.813-8.512-8.5-8.512z"/><path class="st6" d="M105.61 109.152a8.479 8.479 0 0 1-6.306-2.812l-3.849-4.285a1.504 1.504 0 0 1 .361-2.303 20.05 20.05 0 0 1 1.859-.963c2.423-1.098 5.057-1.655 7.826-1.655s5.402.557 7.828 1.656c.756.333 1.516.74 2.309 1.238a1.5 1.5 0 0 1 .693 1.104c.052.455-.106.908-.43 1.231l-4.3 4.306a8.526 8.526 0 0 1-5.991 2.483zm-6.625-7.659 2.55 2.838a5.479 5.479 0 0 0 4.075 1.816 5.5 5.5 0 0 0 3.869-1.603l2.888-2.892c-.087-.041-.174-.08-.261-.118-2.049-.928-4.267-1.395-6.606-1.395-2.31 0-4.501.456-6.515 1.354zM22.5 23.032c-6.341 0-11.5-5.166-11.5-11.516S16.159 0 22.5 0 34 5.166 34 11.516s-5.159 11.516-11.5 11.516zm0-20.028c-4.687 0-8.5 3.818-8.5 8.512s3.813 8.512 8.5 8.512S31 16.21 31 11.516s-3.813-8.512-8.5-8.512z"/><path class="st6" d="M18.927 50.893c-.046 0-.092-.002-.138-.006C5.907 49.708.526 42.759.303 42.463a1.506 1.506 0 0 1-.26-1.265c.053-.215 1.332-5.312 4.672-10.472C9.246 23.727 15.396 20.028 22.5 20.028s13.254 3.699 17.785 10.699c3.34 5.16 4.619 10.257 4.672 10.472.108.44.013.904-.26 1.265-.217.287-5.458 7.053-17.965 8.37a1.499 1.499 0 0 1-1.648-1.337 1.502 1.502 0 0 1 1.335-1.651c9.229-.972 13.988-5.167 15.416-6.663-1.066-3.484-6.325-18.151-19.335-18.151-13.004 0-18.264 14.653-19.332 18.146 1.465 1.518 6.418 5.85 15.893 6.717a1.5 1.5 0 0 1 1.357 1.632 1.5 1.5 0 0 1-1.491 1.366zM101.927 50.893c-.046 0-.092-.002-.138-.006-12.882-1.178-18.263-8.128-18.485-8.423a1.506 1.506 0 0 1-.26-1.265c.053-.215 1.332-5.312 4.672-10.472 4.531-6.999 10.681-10.699 17.785-10.699s13.254 3.699 17.785 10.699c3.34 5.16 4.619 10.257 4.672 10.472.108.44.013.904-.26 1.265-.217.287-5.458 7.053-17.965 8.37a1.498 1.498 0 0 1-1.648-1.337 1.502 1.502 0 0 1 1.335-1.651c9.229-.972 13.988-5.167 15.416-6.663-1.065-3.484-6.323-18.152-19.333-18.152-13.004 0-18.264 14.653-19.332 18.146 1.465 1.518 6.418 5.85 15.893 6.717a1.5 1.5 0 0 1 1.357 1.632 1.505 1.505 0 0 1-1.494 1.367zM101.927 128c-.046 0-.092-.002-.138-.006-12.882-1.178-18.263-8.128-18.485-8.423a1.506 1.506 0 0 1-.26-1.265c.053-.215 1.332-5.312 4.672-10.472 4.531-6.999 10.681-10.699 17.785-10.699s13.254 3.699 17.785 10.699c3.34 5.16 4.619 10.257 4.672 10.472.108.44.013.904-.26 1.265-.217.287-5.458 7.053-17.965 8.37a1.501 1.501 0 0 1-.313-2.988c9.229-.972 13.988-5.167 15.416-6.663-1.065-3.484-6.323-18.152-19.333-18.152-13.004 0-18.264 14.653-19.332 18.146 1.465 1.518 6.418 5.85 15.893 6.717a1.5 1.5 0 0 1 1.357 1.632 1.505 1.505 0 0 1-1.494 1.367zM18.927 128c-.046 0-.092-.002-.138-.006C5.907 126.816.526 119.866.304 119.571a1.506 1.506 0 0 1-.26-1.265c.053-.215 1.332-5.312 4.672-10.472 4.531-6.999 10.681-10.699 17.785-10.699s13.254 3.699 17.785 10.699c3.34 5.16 4.619 10.257 4.672 10.472.108.44.013.904-.26 1.265-.217.287-5.458 7.053-17.965 8.37a1.503 1.503 0 0 1-.313-2.988c9.229-.972 13.988-5.167 15.416-6.663-1.065-3.484-6.323-18.152-19.333-18.152-13.004 0-18.264 14.653-19.332 18.146 1.465 1.518 6.418 5.85 15.893 6.717a1.5 1.5 0 0 1 1.357 1.632A1.505 1.505 0 0 1 18.927 128z"/><path class="st6" d="M22.61 32.044a8.479 8.479 0 0 1-6.306-2.812l-3.849-4.285a1.504 1.504 0 0 1 .361-2.303 20.05 20.05 0 0 1 1.859-.963c2.423-1.098 5.057-1.655 7.826-1.655s5.402.557 7.828 1.656c.756.333 1.516.74 2.309 1.238a1.5 1.5 0 0 1 .693 1.104c.052.455-.106.908-.43 1.231l-4.3 4.306a8.522 8.522 0 0 1-5.991 2.483zm-6.625-7.658 2.55 2.838a5.479 5.479 0 0 0 4.075 1.816 5.5 5.5 0 0 0 3.869-1.603l2.888-2.892c-.087-.041-.174-.08-.261-.118-2.049-.928-4.267-1.395-6.606-1.395-2.31 0-4.501.456-6.515 1.354zM105.5 23.032c-6.341 0-11.5-5.166-11.5-11.516S99.159 0 105.5 0 117 5.166 117 11.516s-5.159 11.516-11.5 11.516zm0-20.028c-4.687 0-8.5 3.818-8.5 8.512s3.813 8.512 8.5 8.512 8.5-3.818 8.5-8.512-3.813-8.512-8.5-8.512z"/><path class="st6" d="M105.61 32.044a8.479 8.479 0 0 1-6.306-2.812l-3.849-4.285a1.504 1.504 0 0 1 .361-2.303 20.05 20.05 0 0 1 1.859-.963c2.423-1.098 5.057-1.655 7.826-1.655s5.402.557 7.828 1.656c.756.333 1.516.74 2.309 1.238a1.5 1.5 0 0 1 .693 1.104c.052.455-.106.908-.43 1.231l-4.3 4.306a8.522 8.522 0 0 1-5.991 2.483zm-6.625-7.658 2.55 2.838a5.479 5.479 0 0 0 4.075 1.816 5.5 5.5 0 0 0 3.869-1.603l2.888-2.892c-.087-.041-.174-.08-.261-.118-2.049-.928-4.267-1.395-6.606-1.395-2.31 0-4.501.456-6.515 1.354z"/><path class="st7" d="M64 89.124c-13.785 0-25-11.23-25-25.035 0-12.354 8.829-22.746 20.993-24.711a1.499 1.499 0 0 1 1.72 1.244 1.502 1.502 0 0 1-1.242 1.722C49.768 44.072 42 53.217 42 64.089c0 12.148 9.869 22.031 22 22.031s22-9.883 22-22.031c0-10.82-7.727-19.958-18.372-21.726a1.502 1.502 0 0 1 .492-2.964C80.219 41.409 89 51.793 89 64.089c0 13.804-11.215 25.035-25 25.035z"/><path class="st6" d="M64 77.107c-7.168 0-13-5.84-13-13.018s5.832-13.018 13-13.018 13 5.84 13 13.018-5.832 13.018-13 13.018zm0-23.032c-5.514 0-10 4.492-10 10.014s4.486 10.014 10 10.014 10-4.492 10-10.014-4.486-10.014-10-10.014z"/><path class="st6" d="M56.5 65.591h-8c-.829 0-1.5-.672-1.5-1.502s.671-1.502 1.5-1.502h8c.829 0 1.5.672 1.5 1.502s-.671 1.502-1.5 1.502zM79.5 65.591h-8c-.829 0-1.5-.672-1.5-1.502s.671-1.502 1.5-1.502h8c.829 0 1.5.672 1.5 1.502s-.671 1.502-1.5 1.502zM64 81.113a1.5 1.5 0 0 1-1.5-1.502V71.6a1.5 1.5 0 1 1 3 0v8.011c0 .829-.671 1.502-1.5 1.502zM64 58.081a1.5 1.5 0 0 1-1.5-1.502v-8.011a1.5 1.5 0 1 1 3 0v8.011c0 .829-.671 1.502-1.5 1.502z"/></g></svg>